<svg width="180" height="622" fill="none" xmlns="http://www.w3.org/2000/svg"><path d="M172.71-137S19.58-104.57 13.273-17.926c-6.307 86.644 231.598 17.186 136.358 198-95.241 180.813-181.318 185.289-136.358 298C58.233 590.785 178.96 649.953 319.21 605.2c140.251-44.754 153.453-332.126 153.453-332.126" stroke="#D0D5F6" stroke-width="2"/><path d="M214.7-137S94.575-108.519 89.628-32.425c-4.948 76.093 181.679 15.093 106.966 173.89C121.882 300.262 54.359 304.192 89.628 403.179c35.269 98.986 129.974 150.95 239.995 111.646C439.643 475.521 450 223.141 450 223.141" stroke="#D0D5F6" stroke-width="2"/><path d="M250.935-139s-90.905 24.841-94.649 91.208c-3.744 66.367 137.487 13.165 80.948 151.664s-107.638 141.927-80.948 228.261c26.69 86.335 98.359 131.656 181.618 97.376S429 175.108 429 175.108" stroke="#D0D5F6" stroke-width="2"/></svg>